<svg width="247" height="34" fill="none" color="#FFFFFF" xmlns="http://www.w3.org/2000/svg">
  <defs></defs>
  <path d="M18 33h16v-2.586h-7.277A15.924 15.924 0 0 1 18 33ZM18 27.182a3.236 3.236 0 0 1-3.232-3.232A3.236 3.236 0 0 1 18 20.716v-7.434a3.236 3.236 0 0 1-3.232-3.232A3.236 3.236 0 0 1 18 6.817V1C9.163 1 2 8.163 2 17s7.163 16 16 16v-5.818Zm-6.95-6.95A3.236 3.236 0 0 1 7.818 17a3.236 3.236 0 0 1 3.232-3.232A3.236 3.236 0 0 1 14.284 17a3.236 3.236 0 0 1-3.232 3.232Z" fill="#E30B13"></path>
  <path d="M34 17c0-8.837-7.163-16-16-16v5.818a3.236 3.236 0 0 1 3.232 3.232A3.236 3.236 0 0 1 18 13.284v7.434a3.236 3.236 0 0 1 3.232 3.233A3.236 3.236 0 0 1 18 27.181V33c3.218 0 6.214-.95 8.723-2.586C31.103 27.56 34 22.618 34 17Zm-9.05-3.232A3.236 3.236 0 0 1 28.181 17a3.236 3.236 0 0 1-3.232 3.232A3.236 3.236 0 0 1 21.716 17a3.236 3.236 0 0 1 3.233-3.232Z" fill="#CE080F"></path>
  <path d="M 115.866 24.932 C 117.054 24.932 118.022 24.14 118.022 22.93 C 118.022 21.698 117.054 20.884 115.866 20.884 C 114.634 20.884 113.666 21.698 113.666 22.93 C 113.666 24.14 114.634 24.932 115.866 24.932 Z" fill="#E30B13" style="opacity: 0.9; transform-box: fill-box; transform-origin: 50% 50%;"></path>
  <text style="white-space: pre; fill: rgb(255, 255, 255); font-family: Arial, sans-serif; font-size: 26.2px; color: rgb(236, 236, 236); font-weight: 700;" x="39.904" y="24.964">CHAP CINEMA</text>
</svg>